<?xml version="1.0" encoding="UTF-8"?><svg id="Layer_1" xmlns="http://www.w3.org/2000/svg" xmlns:xlink="http://www.w3.org/1999/xlink" viewBox="0 0 688.81 772.86"><defs><style>.cls-1{fill:url(#linear-gradient);}.cls-2{fill:#fff;}.cls-3{fill:url(#linear-gradient-3);}.cls-4{fill:url(#linear-gradient-4);}.cls-5{fill:url(#linear-gradient-2);}.cls-6{fill:url(#linear-gradient-5);}</style><linearGradient id="linear-gradient" x1="616.06" y1=".92" x2="616.06" y2="145.41" gradientUnits="userSpaceOnUse"><stop offset="0" stop-color="#ffd612"/><stop offset="1" stop-color="#f5901e"/></linearGradient><linearGradient id="linear-gradient-2" x1="253.85" y1=".92" x2="253.85" y2="145.41" xlink:href="#linear-gradient"/><linearGradient id="linear-gradient-3" x1="72.75" y1="314.61" x2="72.75" y2="459.09" xlink:href="#linear-gradient"/><linearGradient id="linear-gradient-4" x1="253.85" y1="628.29" x2="253.85" y2="772.77" xlink:href="#linear-gradient"/><linearGradient id="linear-gradient-5" x1="616.06" y1="628.29" x2="616.06" y2="772.77" xlink:href="#linear-gradient"/></defs><path class="cls-2" d="M109.82,326.7c-.76,0-1.53-.19-2.23-.6-2.14-1.23-2.87-3.97-1.64-6.1l106.95-185.25c1.23-2.14,3.97-2.87,6.1-1.64,2.14,1.23,2.87,3.97,1.64,6.1l-106.95,185.25c-.83,1.43-2.33,2.24-3.87,2.24Z"/><path class="cls-2" d="M514.74,704.57h-159.54c-2.47,0-4.47-2-4.47-4.47s2-4.47,4.47-4.47h159.54c2.47,0,4.47,2,4.47,4.47s-2,4.47-4.47,4.47Z"/><path class="cls-2" d="M216.78,640.36c-1.54,0-3.04-.8-3.87-2.23l-106.98-185.22c-1.23-2.14-.5-4.87,1.63-6.1,2.14-1.23,4.87-.5,6.1,1.63l106.98,185.22c1.23,2.14,.5,4.87-1.63,6.1-.7,.41-1.47,.6-2.23,.6Z"/><path class="cls-2" d="M514.74,77.23h-159.54c-2.47,0-4.47-2-4.47-4.47s2-4.47,4.47-4.47h159.54c2.47,0,4.47,2,4.47,4.47s-2,4.47-4.47,4.47Z"/><path class="cls-2" d="M434.95,205.33c-100,0-181.07,81.1-181.07,181.09s81.07,181.09,181.07,181.09,181.09-81.07,181.09-181.09-81.07-181.09-181.09-181.09Zm67.73,185.07c-29.95,10.15-53.61,33.81-63.76,63.76-1.29,3.8-6.63,3.8-7.91,0-10.15-29.95-33.84-53.61-63.76-63.76-3.8-1.29-3.8-6.63,0-7.91,29.92-10.15,53.61-33.84,63.76-63.76,1.29-3.8,6.63-3.8,7.91,0,10.15,29.92,33.81,53.61,63.76,63.76,3.8,1.29,3.8,6.63,0,7.91Z"/><path class="cls-1" d="M685.86,76.83c-30.86,10.45-55.27,34.85-65.72,65.72-1.33,3.93-6.83,3.93-8.17,0-10.47-30.86-34.87-55.27-65.72-65.72-3.93-1.33-3.93-6.83,0-8.17,30.85-10.47,55.25-34.87,65.72-65.72,1.33-3.93,6.83-3.93,8.17,0,10.45,30.85,34.86,55.25,65.72,65.72,3.93,1.33,3.93,6.83,0,8.17Z"/><path class="cls-5" d="M323.65,76.83c-30.86,10.45-55.27,34.85-65.72,65.72-1.33,3.93-6.83,3.93-8.17,0-10.47-30.86-34.87-55.27-65.72-65.72-3.93-1.33-3.93-6.83,0-8.17,30.85-10.47,55.25-34.87,65.72-65.72,1.33-3.93,6.83-3.93,8.17,0,10.45,30.85,34.86,55.25,65.72,65.72,3.93,1.33,3.93,6.83,0,8.17Z"/><path class="cls-3" d="M142.55,390.52c-30.86,10.45-55.27,34.85-65.72,65.72-1.33,3.93-6.83,3.93-8.17,0-10.47-30.86-34.87-55.27-65.72-65.72-3.93-1.33-3.93-6.83,0-8.17,30.85-10.47,55.25-34.87,65.72-65.72,1.33-3.93,6.83-3.93,8.17,0,10.45,30.85,34.86,55.25,65.72,65.72,3.93,1.33,3.93,6.83,0,8.17Z"/><path class="cls-4" d="M323.65,704.2c-30.86,10.45-55.27,34.85-65.72,65.72-1.33,3.93-6.83,3.93-8.17,0-10.47-30.86-34.87-55.27-65.72-65.72-3.93-1.33-3.93-6.83,0-8.17,30.85-10.47,55.25-34.87,65.72-65.72,1.33-3.93,6.83-3.93,8.17,0,10.45,30.85,34.86,55.25,65.72,65.72,3.93,1.33,3.93,6.83,0,8.17Z"/><path class="cls-6" d="M685.86,704.2c-30.86,10.45-55.27,34.85-65.72,65.72-1.33,3.93-6.83,3.93-8.17,0-10.47-30.86-34.87-55.27-65.72-65.72-3.93-1.33-3.93-6.83,0-8.17,30.85-10.47,55.25-34.87,65.72-65.72,1.33-3.93,6.83-3.93,8.17,0,10.45,30.85,34.86,55.25,65.72,65.72,3.93,1.33,3.93,6.83,0,8.17Z"/></svg>