<?xml version="1.0" encoding="UTF-8"?><svg id="Layer_1" xmlns="http://www.w3.org/2000/svg" xmlns:xlink="http://www.w3.org/1999/xlink" viewBox="0 0 1825.67 469.49"><defs><style>.cls-1{fill:url(#linear-gradient);}.cls-2{fill:#003486;}.cls-3{fill:url(#linear-gradient-8);}.cls-4{fill:url(#linear-gradient-9);}.cls-5{fill:url(#linear-gradient-3);}.cls-6{fill:url(#linear-gradient-4);}.cls-7{fill:url(#linear-gradient-2);}.cls-8{fill:url(#linear-gradient-6);}.cls-9{fill:url(#linear-gradient-7);}.cls-10{fill:url(#linear-gradient-5);}.cls-11{fill:url(#linear-gradient-14);}.cls-12{fill:url(#linear-gradient-18);}.cls-13{fill:url(#linear-gradient-20);}.cls-14{fill:url(#linear-gradient-15);}.cls-15{fill:url(#linear-gradient-19);}.cls-16{fill:url(#linear-gradient-16);}.cls-17{fill:url(#linear-gradient-17);}.cls-18{fill:url(#linear-gradient-13);}.cls-19{fill:url(#linear-gradient-12);}.cls-20{fill:url(#linear-gradient-10);}.cls-21{fill:url(#linear-gradient-11);}</style><linearGradient id="linear-gradient" x1="264.23" y1="124.73" x2="264.23" y2="344.74" gradientUnits="userSpaceOnUse"><stop offset="0" stop-color="#003f9f"/><stop offset="1" stop-color="#011a4b"/></linearGradient><linearGradient id="linear-gradient-2" x1="374.24" y1=".56" x2="374.24" y2="88.33" gradientUnits="userSpaceOnUse"><stop offset="0" stop-color="#ffd612"/><stop offset="1" stop-color="#f5901e"/></linearGradient><linearGradient id="linear-gradient-3" x1="154.21" y1=".56" x2="154.21" y2="88.33" xlink:href="#linear-gradient-2"/><linearGradient id="linear-gradient-4" x1="44.19" y1="191.11" x2="44.19" y2="278.88" xlink:href="#linear-gradient-2"/><linearGradient id="linear-gradient-5" x1="154.21" y1="381.66" x2="154.21" y2="469.43" xlink:href="#linear-gradient-2"/><linearGradient id="linear-gradient-6" x1="374.24" y1="381.66" x2="374.24" y2="469.43" xlink:href="#linear-gradient-2"/><linearGradient id="linear-gradient-7" x1="1533.31" y1="117.69" x2="1533.31" y2="163.07" xlink:href="#linear-gradient-2"/><linearGradient id="linear-gradient-8" x1="517.38" y1="142.25" x2="517.38" y2="281.25" xlink:href="#linear-gradient"/><linearGradient id="linear-gradient-9" x1="644.65" y1="142.25" x2="644.65" y2="281.25" xlink:href="#linear-gradient"/><linearGradient id="linear-gradient-10" x1="782.16" y1="142.25" x2="782.16" y2="281.25" xlink:href="#linear-gradient"/><linearGradient id="linear-gradient-11" x1="906.86" y1="142.25" x2="906.86" y2="281.25" xlink:href="#linear-gradient"/><linearGradient id="linear-gradient-12" x1="1007.22" y1="142.25" x2="1007.22" y2="281.25" xlink:href="#linear-gradient"/><linearGradient id="linear-gradient-13" x1="1102.61" y1="142.25" x2="1102.61" y2="281.25" xlink:href="#linear-gradient"/><linearGradient id="linear-gradient-14" x1="1195.52" y1="142.25" x2="1195.52" y2="281.25" xlink:href="#linear-gradient"/><linearGradient id="linear-gradient-15" x1="1251.51" y1="142.25" x2="1251.51" y2="281.25" xlink:href="#linear-gradient"/><linearGradient id="linear-gradient-16" x1="1346.98" y1="142.25" x2="1346.98" y2="281.25" xlink:href="#linear-gradient"/><linearGradient id="linear-gradient-17" x1="1471.07" y1="142.25" x2="1471.07" y2="281.25" xlink:href="#linear-gradient"/><linearGradient id="linear-gradient-18" x1="1533.31" y1="142.25" x2="1533.31" y2="281.25" xlink:href="#linear-gradient"/><linearGradient id="linear-gradient-19" x1="1629.01" y1="142.25" x2="1629.01" y2="281.25" xlink:href="#linear-gradient"/><linearGradient id="linear-gradient-20" x1="1769.74" y1="142.25" x2="1769.74" y2="281.25" xlink:href="#linear-gradient"/></defs><g><path class="cls-2" d="M66.71,198.46c-.46,0-.93-.12-1.35-.36-1.3-.75-1.74-2.41-.99-3.71l64.97-112.53c.75-1.3,2.41-1.74,3.71-.99,1.3,.75,1.74,2.41,.99,3.71l-64.97,112.53c-.5,.87-1.42,1.36-2.35,1.36Z"/><path class="cls-2" d="M312.69,428h-96.92c-1.5,0-2.71-1.21-2.71-2.71s1.21-2.71,2.71-2.71h96.92c1.5,0,2.71,1.21,2.71,2.71s-1.21,2.71-2.71,2.71Z"/><path class="cls-2" d="M131.68,388.99c-.94,0-1.85-.49-2.35-1.36l-64.99-112.51c-.75-1.3-.3-2.96,.99-3.71,1.3-.75,2.96-.3,3.71,.99l64.99,112.51c.75,1.3,.3,2.96-.99,3.71-.43,.25-.89,.36-1.35,.36Z"/><path class="cls-2" d="M312.69,46.91h-96.92c-1.5,0-2.71-1.21-2.71-2.71s1.21-2.71,2.71-2.71h96.92c1.5,0,2.71,1.21,2.71,2.71s-1.21,2.71-2.71,2.71Z"/><path class="cls-1" d="M264.22,124.73c-60.75,0-109.99,49.26-109.99,110.01s49.25,110.01,109.99,110.01,110.01-49.25,110.01-110.01-49.25-110.01-110.01-110.01Zm41.14,112.42c-18.19,6.17-32.56,20.54-38.73,38.73-.78,2.31-4.03,2.31-4.81,0-6.17-18.19-20.55-32.56-38.73-38.73-2.31-.78-2.31-4.03,0-4.81,18.18-6.17,32.56-20.55,38.73-38.73,.78-2.31,4.03-2.31,4.81,0,6.17,18.18,20.54,32.56,38.73,38.73,2.31,.78,2.31,4.03,0,4.81Z"/><path class="cls-7" d="M416.64,46.67c-18.75,6.35-33.57,21.17-39.92,39.92-.81,2.39-4.15,2.39-4.96,0-6.36-18.75-21.18-33.57-39.92-39.92-2.39-.81-2.39-4.15,0-4.96,18.74-6.36,33.56-21.18,39.92-39.92,.81-2.39,4.15-2.39,4.96,0,6.35,18.74,21.17,33.56,39.92,39.92,2.39,.81,2.39,4.15,0,4.96Z"/><path class="cls-5" d="M196.61,46.67c-18.75,6.35-33.57,21.17-39.92,39.92-.81,2.39-4.15,2.39-4.96,0-6.36-18.75-21.18-33.57-39.92-39.92-2.39-.81-2.39-4.15,0-4.96,18.74-6.36,33.56-21.18,39.92-39.92,.81-2.39,4.15-2.39,4.96,0,6.35,18.74,21.17,33.56,39.92,39.92,2.39,.81,2.39,4.15,0,4.96Z"/><path class="cls-6" d="M86.59,237.22c-18.75,6.35-33.57,21.17-39.92,39.92-.81,2.39-4.15,2.39-4.96,0-6.36-18.75-21.18-33.57-39.92-39.92-2.39-.81-2.39-4.15,0-4.96,18.74-6.36,33.56-21.18,39.92-39.92,.81-2.39,4.15-2.39,4.96,0,6.35,18.74,21.17,33.56,39.92,39.92,2.39,.81,2.39,4.15,0,4.96Z"/><path class="cls-10" d="M196.61,427.77c-18.75,6.35-33.57,21.17-39.92,39.92-.81,2.39-4.15,2.39-4.96,0-6.36-18.75-21.18-33.57-39.92-39.92-2.39-.81-2.39-4.15,0-4.96,18.74-6.36,33.56-21.18,39.92-39.92,.81-2.39,4.15-2.39,4.96,0,6.35,18.74,21.17,33.56,39.92,39.92,2.39,.81,2.39,4.15,0,4.96Z"/><path class="cls-8" d="M416.64,427.77c-18.75,6.35-33.57,21.17-39.92,39.92-.81,2.39-4.15,2.39-4.96,0-6.36-18.75-21.18-33.57-39.92-39.92-2.39-.81-2.39-4.15,0-4.96,18.74-6.36,33.56-21.18,39.92-39.92,.81-2.39,4.15-2.39,4.96,0,6.35,18.74,21.17,33.56,39.92,39.92,2.39,.81,2.39,4.15,0,4.96Z"/></g><g><path class="cls-9" d="M1554.76,141.48c-9.48,3.21-16.98,10.71-20.19,20.19-.41,1.21-2.1,1.21-2.51,0-3.22-9.48-10.71-16.98-20.19-20.19-1.21-.41-1.21-2.1,0-2.51,9.48-3.22,16.98-10.71,20.19-20.19,.41-1.21,2.1-1.21,2.51,0,3.21,9.48,10.71,16.98,20.19,20.19,1.21,.41,1.21,2.1,0,2.51Z"/><g><path class="cls-3" d="M492.75,284.52c-9.42-5.19-16.79-12.34-22.13-21.46-5.34-9.12-8.01-19.46-8.01-31.03s2.67-21.91,8.01-31.02c5.34-9.12,12.71-16.24,22.13-21.35,9.41-5.12,20.13-7.67,32.14-7.67,10.68,0,20.2,2.15,28.58,6.45,7.73,3.97,13.86,9.59,18.37,16.85,.63,1.01,.29,2.35-.71,2.99l-12.65,8.15c-1,.64-2.31,.36-3.01-.6-3.48-4.77-7.67-8.41-12.57-10.92-5.49-2.81-11.56-4.23-18.24-4.23-7.71,0-14.64,1.71-20.8,5.12-6.15,3.41-10.97,8.27-14.46,14.57-3.49,6.3-5.23,13.53-5.23,21.68s1.74,15.61,5.23,21.91c3.48,6.3,8.3,11.16,14.46,14.57,6.15,3.41,13.08,5.12,20.8,5.12,6.67,0,12.75-1.41,18.24-4.23,4.91-2.52,9.1-6.16,12.59-10.94,.7-.95,1.99-1.24,2.99-.61l12.63,7.96c1.01,.64,1.36,1.98,.72,3-4.51,7.26-10.63,12.91-18.36,16.94-8.38,4.38-17.9,6.56-28.58,6.56-12.01,0-22.72-2.59-32.14-7.78Z"/><path class="cls-4" d="M613.18,284.52c-9.34-5.19-16.65-12.34-21.91-21.46-5.26-9.12-7.9-19.46-7.9-31.03s2.63-21.91,7.9-31.02c5.26-9.12,12.57-16.24,21.91-21.35,9.34-5.12,19.87-7.67,31.58-7.67s22.2,2.56,31.47,7.67c9.26,5.12,16.53,12.23,21.8,21.35,5.26,9.12,7.9,19.46,7.9,31.02s-2.63,21.91-7.9,31.03c-5.26,9.12-12.53,16.27-21.8,21.46-9.27,5.19-19.76,7.78-31.47,7.78s-22.24-2.59-31.58-7.78Zm51.93-16.12c6-3.48,10.71-8.38,14.12-14.68,3.41-6.3,5.12-13.53,5.12-21.68s-1.71-15.38-5.12-21.68c-3.41-6.3-8.12-11.16-14.12-14.57-6-3.41-12.79-5.12-20.35-5.12s-14.35,1.71-20.35,5.12c-6,3.41-10.75,8.27-14.23,14.57-3.49,6.3-5.23,13.53-5.23,21.68s1.74,15.38,5.23,21.68c3.48,6.3,8.23,11.2,14.23,14.68,6,3.48,12.79,5.23,20.35,5.23s14.35-1.74,20.35-5.23Z"/><path class="cls-20" d="M824.87,185c8.82,8.67,13.23,21.39,13.23,38.14v65.62c0,1.22-.99,2.21-2.21,2.21h-16.93c-1.22,0-2.21-.99-2.21-2.21v-63.18c0-11.42-2.75-20.02-8.23-25.8-5.49-5.78-13.34-8.67-23.58-8.67-11.57,0-20.68,3.37-27.36,10.12-6.67,6.75-10.01,16.42-10.01,29.02v58.51c0,1.22-.99,2.21-2.21,2.21h-16.93c-1.22,0-2.21-.99-2.21-2.21v-113.46c0-1.22,.99-2.21,2.21-2.21h16.04c1.22,0,2.21,.99,2.21,2.21v15.59c4.3-6.08,10.12-10.75,17.46-14.01,7.34-3.26,15.68-4.89,25.02-4.89,14.97,0,26.87,4.34,35.7,13.01Z"/><path class="cls-21" d="M877.64,288.42c-8.05-2.34-14.52-5.27-19.41-8.77-.88-.63-1.13-1.84-.62-2.79l6.85-13.01c.61-1.15,2.08-1.58,3.17-.87,4.78,3.08,10.42,5.6,16.91,7.54,7.41,2.22,14.9,3.34,22.46,3.34,18.68,0,28.02-5.34,28.02-16.01,0-3.56-1.26-6.37-3.78-8.45-2.52-2.07-5.67-3.59-9.45-4.56-3.78-.96-9.16-2.04-16.12-3.22-9.49-1.48-17.24-3.19-23.24-5.12-6-1.93-11.16-5.19-15.46-9.79-4.3-4.59-6.45-11.04-6.45-19.35,0-10.68,4.45-19.24,13.34-25.69,8.9-6.45,20.83-9.68,35.81-9.68,7.86,0,15.71,.97,23.58,2.89,6.92,1.7,12.75,3.91,17.48,6.64,1.05,.61,1.45,1.92,.87,2.98l-7.01,13c-.6,1.12-2.01,1.47-3.1,.83-9.2-5.41-19.88-8.11-32.04-8.11-9.05,0-15.94,1.48-20.68,4.45-4.75,2.97-7.12,6.9-7.12,11.79,0,3.86,1.33,6.89,4,9.12,2.67,2.22,5.97,3.86,9.9,4.89,3.93,1.04,9.45,2.22,16.57,3.56,9.49,1.63,17.16,3.37,23.02,5.23,5.86,1.86,10.86,5,15.01,9.45,4.15,4.45,6.23,10.67,6.23,18.68,0,10.67-4.56,19.16-13.68,25.47-9.12,6.3-21.54,9.45-37.25,9.45-9.64,0-18.9-1.3-27.8-3.89Z"/><path class="cls-19" d="M1038.38,282.53c.4,.91,.15,2.01-.64,2.61-2.86,2.16-6.28,3.84-10.25,5.06-4.6,1.41-9.34,2.11-14.23,2.11-11.86,0-21.06-3.19-27.58-9.56-6.53-6.37-9.79-15.49-9.79-27.36v-105.88c0-1.22,.99-2.21,2.21-2.21h16.93c1.22,0,2.21,.99,2.21,2.21v23.59h31.6c1.22,0,2.21,.99,2.21,2.21v13.15c0,1.22-.99,2.21-2.21,2.21h-31.6v63.83c0,6.38,1.59,11.27,4.78,14.68,3.19,3.41,7.75,5.12,13.68,5.12,5.55,0,10.4-1.34,14.55-4.02,1.14-.74,2.67-.29,3.21,.96l4.91,11.3Z"/><path class="cls-18" d="M1158.88,239.15h-93.64c1.33,10.38,5.89,18.72,13.68,25.02,7.78,6.3,17.46,9.45,29.02,9.45,13.2,0,24-4.17,32.38-12.51,.92-.91,2.43-.81,3.27,.18l8.91,10.42c.72,.84,.72,2.11-.03,2.92-5.1,5.52-11.31,9.78-18.62,12.79-7.93,3.26-16.79,4.89-26.58,4.89-12.45,0-23.5-2.56-33.14-7.67-9.64-5.12-17.09-12.27-22.35-21.46-5.26-9.19-7.9-19.57-7.9-31.14s2.56-21.72,7.67-30.91c5.12-9.19,12.16-16.35,21.13-21.46,8.97-5.12,19.09-7.67,30.36-7.67s21.31,2.56,30.14,7.67c8.82,5.12,15.71,12.27,20.68,21.46,4.97,9.2,7.45,19.72,7.45,31.58,0,1.2-.08,2.67-.24,4.42-.1,1.14-1.06,2.03-2.2,2.03Zm-81.52-39.81c-6.89,6.23-10.94,14.38-12.12,24.46h75.62c-1.19-9.93-5.23-18.05-12.12-24.35-6.89-6.3-15.46-9.45-25.69-9.45s-18.79,3.11-25.69,9.34Z"/><path class="cls-11" d="M1187.05,125.95h16.93c1.22,0,2.21,.99,2.21,2.21v160.61c0,1.22-.99,2.21-2.21,2.21h-16.93c-1.22,0-2.21-.99-2.21-2.21V128.16c0-1.22,.99-2.21,2.21-2.21Z"/><path class="cls-14" d="M1243.05,125.95h16.93c1.22,0,2.21,.99,2.21,2.21v160.61c0,1.22-.99,2.21-2.21,2.21h-16.93c-1.22,0-2.21-.99-2.21-2.21V128.16c0-1.22,.99-2.21,2.21-2.21Z"/><path class="cls-16" d="M1408.03,175.31v113.46c0,1.22-.99,2.21-2.21,2.21h-16.04c-1.22,0-2.21-.99-2.21-2.21v-16.47c-4.75,6.53-10.75,11.49-18.01,14.9-7.27,3.41-15.27,5.12-24.02,5.12-11.42,0-21.65-2.52-30.69-7.56-9.05-5.04-16.12-12.12-21.24-21.24-5.12-9.12-7.67-19.61-7.67-31.47s2.56-22.31,7.67-31.36c5.12-9.04,12.19-16.09,21.24-21.13,9.04-5.04,19.27-7.56,30.69-7.56,8.45,0,16.24,1.6,23.35,4.78,7.12,3.19,13.05,7.9,17.79,14.12v-15.59c0-1.22,.99-2.21,2.21-2.21h16.93c1.22,0,2.21,.99,2.21,2.21Zm-40.48,93.09c6.08-3.48,10.82-8.38,14.23-14.68,3.41-6.3,5.12-13.53,5.12-21.68s-1.71-15.38-5.12-21.68c-3.41-6.3-8.16-11.16-14.23-14.57-6.08-3.41-12.83-5.12-20.24-5.12s-14.35,1.71-20.35,5.12c-6,3.41-10.75,8.27-14.23,14.57-3.49,6.3-5.23,13.53-5.23,21.68s1.74,15.38,5.23,21.68c3.48,6.3,8.23,11.2,14.23,14.68,6,3.48,12.79,5.23,20.35,5.23s14.16-1.74,20.24-5.23Z"/><path class="cls-17" d="M1502.22,282.53c.4,.91,.15,2.01-.64,2.61-2.86,2.16-6.28,3.84-10.25,5.06-4.6,1.41-9.34,2.11-14.23,2.11-11.86,0-21.06-3.19-27.58-9.56-6.53-6.37-9.79-15.49-9.79-27.36v-105.88c0-1.22,.99-2.21,2.21-2.21h16.93c1.22,0,2.21,.99,2.21,2.21v23.59h31.6c1.22,0,2.21,.99,2.21,2.21v13.15c0,1.22-.99,2.21-2.21,2.21h-31.6v63.83c0,6.38,1.59,11.27,4.78,14.68,3.19,3.41,7.75,5.12,13.68,5.12,5.55,0,10.4-1.34,14.55-4.02,1.14-.74,2.67-.29,3.21,.96l4.91,11.3Z"/><path class="cls-12" d="M1524.85,173.1h16.93c1.22,0,2.21,.99,2.21,2.21v113.46c0,1.22-.99,2.21-2.21,2.21h-16.93c-1.22,0-2.21-.99-2.21-2.21v-113.46c0-1.22,.99-2.21,2.21-2.21Z"/><path class="cls-15" d="M1597.54,284.52c-9.34-5.19-16.65-12.34-21.91-21.46-5.26-9.12-7.9-19.46-7.9-31.03s2.63-21.91,7.9-31.02c5.26-9.12,12.57-16.24,21.91-21.35,9.34-5.12,19.87-7.67,31.58-7.67s22.2,2.56,31.47,7.67c9.26,5.12,16.53,12.23,21.8,21.35,5.26,9.12,7.9,19.46,7.9,31.02s-2.63,21.91-7.9,31.03c-5.26,9.12-12.53,16.27-21.8,21.46-9.27,5.19-19.76,7.78-31.47,7.78s-22.24-2.59-31.58-7.78Zm51.93-16.12c6-3.48,10.71-8.38,14.12-14.68,3.41-6.3,5.12-13.53,5.12-21.68s-1.71-15.38-5.12-21.68c-3.41-6.3-8.12-11.16-14.12-14.57-6-3.41-12.79-5.12-20.35-5.12s-14.35,1.71-20.35,5.12c-6,3.41-10.75,8.27-14.23,14.57-3.49,6.3-5.23,13.53-5.23,21.68s1.74,15.38,5.23,21.68c3.48,6.3,8.23,11.2,14.23,14.68,6,3.48,12.79,5.23,20.35,5.23s14.35-1.74,20.35-5.23Z"/><path class="cls-13" d="M1812.44,185c8.82,8.67,13.23,21.39,13.23,38.14v65.62c0,1.22-.99,2.21-2.21,2.21h-16.93c-1.22,0-2.21-.99-2.21-2.21v-63.18c0-11.42-2.75-20.02-8.23-25.8-5.49-5.78-13.34-8.67-23.58-8.67-11.57,0-20.68,3.37-27.36,10.12-6.67,6.75-10.01,16.42-10.01,29.02v58.51c0,1.22-.99,2.21-2.21,2.21h-16.93c-1.22,0-2.21-.99-2.21-2.21v-113.46c0-1.22,.99-2.21,2.21-2.21h16.04c1.22,0,2.21,.99,2.21,2.21v15.59c4.3-6.08,10.12-10.75,17.46-14.01,7.34-3.26,15.68-4.89,25.02-4.89,14.97,0,26.87,4.34,35.7,13.01Z"/></g></g></svg>